<svg width="122" height="34" viewBox="0 0 122 34" fill="none" xmlns="http://www.w3.org/2000/svg">
<g clip-path="url(#clip0_18_188)">
<path d="M42.9569 7.57646H40.9938V14.5973H39.2923V7.57646H37.3291V6.15967H42.9569V7.57646Z" fill="white"/>
<path d="M49.4659 14.5973L48.694 12.8262H45.1731L44.4012 14.5973H42.5557L46.3119 6.15967H47.6469L51.2985 14.5973H49.4659ZM45.7098 11.4853H48.1968L46.9531 8.4493L45.7098 11.4853Z" fill="white"/>
<path d="M52.3164 6.15967H54.8424C55.8022 6.15967 56.5438 6.37048 57.0674 6.79214C57.6432 7.26444 57.9315 7.89691 57.9315 8.68968C57.9315 9.56672 57.5909 10.2288 56.9103 10.6757C56.6487 10.8528 56.3301 10.9751 55.9549 11.0426L58.6775 14.5973H56.557L54.2276 11.207H54.0178V14.5973H52.3164V6.15967ZM54.0178 7.50058V10.0432H54.5023C54.6419 10.0432 54.777 10.0348 54.9078 10.0179C55.0474 9.99262 55.2264 9.94622 55.4445 9.87878C55.6626 9.80285 55.8373 9.67217 55.9681 9.48664C56.1076 9.29267 56.1774 9.05229 56.1774 8.76556C56.1774 8.47882 56.112 8.24269 55.9812 8.05716C55.8505 7.86319 55.6758 7.73247 55.4577 7.66502C55.2396 7.5891 55.0649 7.54274 54.9341 7.52586C54.8034 7.50897 54.6682 7.50058 54.5282 7.50058H54.0178Z" fill="white"/>
<path d="M64.2577 11.4978V10.081H68.2627V10.1822C68.2627 11.6918 67.8352 12.8556 66.9799 13.6736C66.2124 14.4158 65.178 14.7868 63.8781 14.7868C62.5519 14.7868 61.4961 14.4073 60.711 13.6483C59.8469 12.8134 59.415 11.7297 59.415 10.3973C59.415 9.13225 59.8425 8.08651 60.6978 7.26003C61.5702 6.39983 62.7178 5.96973 64.1397 5.96973C64.9077 5.96973 65.5795 6.11734 66.1553 6.41247C66.8272 6.74141 67.3727 7.25583 67.7913 7.95579L66.3124 8.72743C66.0768 8.28893 65.7367 7.95579 65.2917 7.7281C64.9252 7.55101 64.5149 7.46244 64.0616 7.46244C63.2414 7.46244 62.5695 7.71121 62.0459 8.2088C61.4614 8.75695 61.1691 9.49911 61.1691 10.4352C61.1691 11.3207 61.457 12.0333 62.0328 12.5731C62.5475 13.0538 63.1931 13.2941 63.9698 13.2941C64.6505 13.2941 65.2219 13.1254 65.6844 12.7881C66.1031 12.4761 66.3778 12.046 66.509 11.4978H64.2577Z" fill="white"/>
<path d="M74.6708 6.15967V7.57646H71.5295V9.46131H74.5396V10.8781H71.5295V13.1804H74.6708V14.5973H69.8281V6.15967H74.6708Z" fill="white"/>
<path d="M81.3143 7.57646H79.3513V14.5973H77.6499V7.57646H75.6865V6.15967H81.3143V7.57646Z" fill="white"/>
<path d="M87.1302 11.0553V10.5493H90.795C90.795 11.6625 90.4984 12.5859 89.905 13.3197C89.137 14.2642 88.0421 14.7365 86.6198 14.7365C85.3287 14.7365 84.2509 14.3274 83.3872 13.5094C82.5319 12.6914 82.1045 11.6541 82.1045 10.3975C82.1045 9.15777 82.5407 8.12472 83.4136 7.29824C84.2948 6.46332 85.3765 6.0459 86.6593 6.0459C87.6625 6.0459 88.5744 6.34947 89.3946 6.9567C89.7962 7.26028 90.1451 7.6145 90.4417 8.01928L89.9836 8.37349C89.7743 8.02772 89.4951 7.7157 89.1458 7.43737C88.4129 6.84706 87.5796 6.55188 86.6461 6.55188C85.5293 6.55188 84.5914 6.92718 83.8322 7.67774C83.0818 8.4283 82.7066 9.34334 82.7066 10.4228C82.7066 11.4854 83.0774 12.3878 83.8191 13.1299C84.5607 13.8636 85.4902 14.2305 86.6071 14.2305C87.2961 14.2305 87.907 14.0913 88.4393 13.813C88.9804 13.5263 89.3815 13.1889 89.6435 12.801C89.9924 12.2781 90.1841 11.6962 90.2192 11.0553H87.1302Z" fill="white"/>
<path d="M97.0047 14.5973H96.3504L93.5233 10.6125H93.2618V14.5973H92.6855V6.15967H93.942C94.7363 6.15967 95.3511 6.30304 95.7878 6.58977C96.3894 6.99455 96.6905 7.59754 96.6905 8.3987C96.6905 8.86257 96.5729 9.27998 96.3372 9.65108C96.1015 10.0137 95.7307 10.2794 95.2247 10.448C94.8934 10.5576 94.5353 10.6125 94.1517 10.6125L97.0047 14.5973ZM93.2618 6.66565V10.1065H94.0991C94.7187 10.1065 95.2028 9.95466 95.5521 9.65108C95.9098 9.34747 96.0884 8.92581 96.0884 8.38606C96.0884 7.67766 95.8312 7.18852 95.3165 6.91867C95.011 6.74998 94.566 6.66565 93.9815 6.66565H93.2618Z" fill="white"/>
<path d="M99.5049 7.31088C100.378 6.46756 101.451 6.0459 102.725 6.0459C103.999 6.0459 105.072 6.46756 105.945 7.31088C106.817 8.1542 107.253 9.1831 107.253 10.3975C107.253 11.6119 106.817 12.6408 105.945 13.4841C105.072 14.319 103.999 14.7365 102.725 14.7365C101.442 14.7365 100.365 14.319 99.4922 13.4841C98.6281 12.6408 98.1963 11.6119 98.1963 10.3975C98.1963 9.1831 98.6325 8.1542 99.5049 7.31088ZM99.924 13.1299C100.674 13.8636 101.608 14.2305 102.725 14.2305C103.842 14.2305 104.775 13.8636 105.525 13.1299C106.276 12.3878 106.651 11.477 106.651 10.3975C106.651 9.30958 106.276 8.39878 105.525 7.6651C104.775 6.92294 103.842 6.55188 102.725 6.55188C101.608 6.55188 100.674 6.92294 99.924 7.6651C99.1736 8.39878 98.7984 9.30958 98.7984 10.3975C98.7984 11.477 99.1736 12.3878 99.924 13.1299Z" fill="white"/>
<path d="M109.135 6.15967H109.711V11.4347C109.711 11.8817 109.732 12.2401 109.776 12.51C109.828 12.7714 109.929 13.0202 110.077 13.2563C110.304 13.6105 110.605 13.8635 110.98 14.0153C111.364 14.1587 111.739 14.2304 112.106 14.2304C112.472 14.2304 112.843 14.1587 113.218 14.0153C113.602 13.8635 113.907 13.6105 114.134 13.2563C114.282 13.0202 114.379 12.7714 114.422 12.51C114.475 12.2401 114.501 11.8817 114.501 11.4347V6.15967H115.077V11.4347C115.077 11.9576 115.046 12.3751 114.985 12.6871C114.924 12.9991 114.788 13.3027 114.579 13.5979C114.038 14.3569 113.214 14.7364 112.106 14.7364C110.998 14.7364 110.173 14.3569 109.632 13.5979C109.423 13.3027 109.287 12.9991 109.226 12.6871C109.165 12.3751 109.135 11.9576 109.135 11.4347V6.15967Z" fill="white"/>
<path d="M119.133 10.5872H118.007V14.5973H117.431V6.15967H119.119C119.861 6.15967 120.471 6.35364 120.952 6.74158C121.432 7.12108 121.671 7.66078 121.671 8.36078C121.671 9.05229 121.44 9.59624 120.978 9.99262C120.515 10.389 119.9 10.5872 119.133 10.5872ZM118.007 6.66565V10.0812H119.158C119.734 10.0812 120.197 9.92938 120.546 9.62576C120.895 9.31375 121.069 8.89629 121.069 8.37342C121.069 7.84211 120.891 7.42465 120.533 7.12108C120.184 6.81746 119.695 6.66565 119.067 6.66565H118.007Z" fill="white"/>
<path d="M42.538 22.0111V17.0522H43.0615V26.2742H42.538V25.3507C42.0582 26.0591 41.3689 26.4133 40.4701 26.4133C39.7459 26.4133 39.1264 26.1729 38.6116 25.6922C38.1056 25.2031 37.8525 24.5284 37.8525 23.6682C37.8525 22.7912 38.1099 22.1291 38.6247 21.6822C39.1395 21.2268 39.7546 20.9991 40.4701 20.9991C41.3601 20.9991 42.0494 21.3364 42.538 22.0111ZM40.4701 21.4798C39.8855 21.4798 39.3925 21.6695 38.9912 22.049C38.5985 22.4285 38.4022 22.9641 38.4022 23.6556C38.4022 24.3724 38.6073 24.9332 39.0174 25.338C39.4274 25.7344 39.9204 25.9326 40.4963 25.9326C41.0635 25.9326 41.5477 25.7344 41.9491 25.338C42.3592 24.9332 42.5642 24.3724 42.5642 23.6556C42.5642 23.0315 42.3766 22.5128 42.0014 22.0996C41.6262 21.6864 41.1158 21.4798 40.4701 21.4798Z" fill="white"/>
<path d="M44.9422 21.1133H45.4657V26.2745H44.9422V21.1133ZM45.5311 19.7344C45.4438 19.8187 45.3345 19.8609 45.2037 19.8609C45.073 19.8609 44.9593 19.8187 44.8636 19.7344C44.7763 19.6416 44.7324 19.5278 44.7324 19.3929C44.7324 19.2579 44.7763 19.1483 44.8636 19.064C44.9593 18.9712 45.073 18.9248 45.2037 18.9248C45.3345 18.9248 45.4438 18.9712 45.5311 19.064C45.6268 19.1483 45.6751 19.2579 45.6751 19.3929C45.6751 19.5278 45.6268 19.6416 45.5311 19.7344Z" fill="white"/>
<path d="M51.7431 21.1134H52.2667V26.1228C52.2667 27.0926 52.0266 27.8432 51.5465 28.3745C51.0756 28.9142 50.4213 29.1841 49.5836 29.1841C48.8595 29.1841 48.2486 28.9859 47.7514 28.5895C47.2625 28.2016 47.0009 27.6618 46.9658 26.9703H47.5157C47.5591 27.5016 47.7685 27.9233 48.1437 28.2353C48.5277 28.5474 49.0078 28.7034 49.5836 28.7034C49.9763 28.7034 50.3164 28.6275 50.6043 28.4757C50.901 28.3239 51.1191 28.151 51.2586 27.957C51.3982 27.763 51.5075 27.5269 51.586 27.2486C51.6646 26.9703 51.708 26.7553 51.7168 26.6035C51.7344 26.4517 51.7431 26.2914 51.7431 26.1228V25.3891C51.2371 26.0722 50.5345 26.4137 49.6358 26.4137C48.9292 26.4137 48.314 26.1734 47.7904 25.6927C47.2669 25.212 47.0053 24.5457 47.0053 23.694C47.0053 22.9265 47.2493 22.2856 47.7382 21.7711C48.2266 21.2567 48.881 20.9995 49.7012 20.9995C50.574 20.9995 51.2543 21.3368 51.7431 22.0115V21.1134ZM51.1801 22.1127C50.7965 21.691 50.2857 21.4802 49.6489 21.4802C49.0122 21.4802 48.5014 21.6995 48.1178 22.138C47.7426 22.5681 47.5548 23.0952 47.5548 23.7192C47.5548 24.3518 47.7426 24.8789 48.1178 25.3005C48.5014 25.7222 49.0034 25.933 49.6226 25.933C50.2686 25.933 50.7878 25.7179 51.1801 25.2878C51.5729 24.8577 51.769 24.318 51.769 23.6686C51.769 23.053 51.5729 22.5344 51.1801 22.1127Z" fill="white"/>
<path d="M54.1439 21.1133H54.6674V26.2745H54.1439V21.1133ZM54.7328 19.7344C54.6459 19.8187 54.5367 19.8609 54.4059 19.8609C54.2751 19.8609 54.1615 19.8187 54.0653 19.7344C53.9785 19.6416 53.9346 19.5278 53.9346 19.3929C53.9346 19.2579 53.9785 19.1483 54.0653 19.064C54.1615 18.9712 54.2751 18.9248 54.4059 18.9248C54.5367 18.9248 54.6459 18.9712 54.7328 19.064C54.8289 19.1483 54.8768 19.2579 54.8768 19.3929C54.8768 19.5278 54.8289 19.6416 54.7328 19.7344Z" fill="white"/>
<path d="M58.04 21.5938H57.1105V26.2743H56.587V21.5938H55.998V21.113H56.587V19.2661H57.1105V21.113H58.04V21.5938Z" fill="white"/>
<path d="M63.4356 22.0115V21.1134H63.9591V26.2746H63.4356V25.3511C62.9555 26.0595 62.2621 26.4137 61.3546 26.4137C60.6305 26.4137 60.0152 26.1649 59.5092 25.6673C59.0032 25.1698 58.75 24.512 58.75 23.694C58.75 22.8928 58.9901 22.2434 59.4697 21.7459C59.9498 21.2483 60.5778 20.9995 61.3546 20.9995C62.2446 20.9995 62.9384 21.3368 63.4356 22.0115ZM61.3809 21.4802C60.8135 21.4802 60.325 21.6784 59.9147 22.0748C59.5048 22.4627 59.2999 22.9898 59.2999 23.656C59.2999 24.2716 59.4873 24.8071 59.8625 25.2626C60.2377 25.7095 60.7481 25.933 61.3936 25.933C62.0308 25.933 62.5324 25.7137 62.8989 25.2752C63.2741 24.8283 63.4619 24.2885 63.4619 23.656C63.4619 22.956 63.2478 22.4205 62.8203 22.0494C62.3929 21.6699 61.9128 21.4802 61.3809 21.4802Z" fill="white"/>
<path d="M65.8379 17.0522H66.3614V26.2742H65.8379V17.0522Z" fill="white"/>
<path d="M75.6407 22.0115V21.1134H76.1642V26.2746H75.6407V25.3511C75.1606 26.0595 74.4672 26.4137 73.5596 26.4137C72.8355 26.4137 72.2203 26.1649 71.7143 25.6673C71.2083 25.1698 70.9551 24.512 70.9551 23.694C70.9551 22.8928 71.1951 22.2434 71.6748 21.7459C72.1549 21.2483 72.7829 20.9995 73.5596 20.9995C74.4496 20.9995 75.1435 21.3368 75.6407 22.0115ZM73.586 21.4802C73.0186 21.4802 72.5301 21.6784 72.1198 22.0748C71.7099 22.4627 71.505 22.9898 71.505 23.656C71.505 24.2716 71.6923 24.8071 72.0676 25.2626C72.4428 25.7095 72.9532 25.933 73.5987 25.933C74.2359 25.933 74.7375 25.7137 75.104 25.2752C75.4792 24.8283 75.667 24.2885 75.667 23.656C75.667 22.956 75.4528 22.4205 75.0254 22.0494C74.598 21.6699 74.1179 21.4802 73.586 21.4802Z" fill="white"/>
<path d="M82.4433 21.1134H82.9669V26.1228C82.9669 27.0926 82.7268 27.8432 82.2472 28.3745C81.7758 28.9142 81.1215 29.1841 80.2837 29.1841C79.5596 29.1841 78.9488 28.9859 78.4516 28.5895C77.9627 28.2016 77.7011 27.6618 77.666 26.9703H78.2159C78.2593 27.5016 78.4687 27.9233 78.8439 28.2353C79.2279 28.5474 79.708 28.7034 80.2837 28.7034C80.6765 28.7034 81.0166 28.6275 81.3045 28.4757C81.6012 28.3239 81.8193 28.151 81.9588 27.957C82.0988 27.763 82.2077 27.5269 82.2862 27.2486C82.3648 26.9703 82.4082 26.7553 82.417 26.6035C82.4345 26.4517 82.4433 26.2914 82.4433 26.1228V25.3891C81.9373 26.0722 81.2347 26.4137 80.336 26.4137C79.6294 26.4137 79.0142 26.1734 78.4906 25.6927C77.9671 25.212 77.7055 24.5457 77.7055 23.694C77.7055 22.9265 77.9495 22.2856 78.4384 21.7711C78.9268 21.2567 79.5811 20.9995 80.4014 20.9995C81.2742 20.9995 81.9544 21.3368 82.4433 22.0115V21.1134ZM81.8803 22.1127C81.4967 21.691 80.9863 21.4802 80.3491 21.4802C79.7124 21.4802 79.202 21.6995 78.818 22.138C78.4428 22.5681 78.2549 23.0952 78.2549 23.7192C78.2549 24.3518 78.4428 24.8789 78.818 25.3005C79.202 25.7222 79.7036 25.933 80.3228 25.933C80.9688 25.933 81.4879 25.7179 81.8803 25.2878C82.273 24.8577 82.4697 24.318 82.4697 23.6686C82.4697 23.053 82.273 22.5344 81.8803 22.1127Z" fill="white"/>
<path d="M89.6223 23.7572H85.0548C85.0548 24.3982 85.2597 24.921 85.6696 25.3258C86.0887 25.7306 86.5903 25.933 87.1748 25.933C87.5935 25.933 87.9643 25.8276 88.2873 25.6168C88.6103 25.3975 88.8587 25.1108 89.0334 24.7566L89.4783 25.0096C89.2778 25.3807 88.9855 25.7095 88.6015 25.9963C88.2175 26.2746 87.7291 26.4137 87.1358 26.4137C86.3243 26.4137 85.6827 26.1607 85.2119 25.6547C84.7405 25.1403 84.5049 24.4951 84.5049 23.7192C84.5049 22.8675 84.7581 22.2013 85.2641 21.7205C85.7789 21.2398 86.3897 20.9995 87.0963 20.9995C87.8204 20.9995 88.4225 21.2567 88.9026 21.7711C89.3822 22.2856 89.6223 22.9476 89.6223 23.7572ZM85.0938 23.2765H89.0724C89.0026 22.7536 88.7845 22.3235 88.4181 21.9862C88.0604 21.6489 87.6198 21.4802 87.0963 21.4802C86.564 21.4802 86.1146 21.6531 85.7481 21.9988C85.3817 22.3362 85.1636 22.7621 85.0938 23.2765Z" fill="white"/>
<path d="M91.1709 26.2746V21.1134H91.6944V21.923C92.0521 21.3073 92.5976 20.9995 93.3305 20.9995C93.9936 20.9995 94.4864 21.2398 94.8094 21.7205C94.9841 21.9904 95.0714 22.4247 95.0714 23.0235V26.2746H94.5478V23.0235C94.5478 22.5428 94.4781 22.1971 94.3381 21.9862C94.1287 21.6489 93.7799 21.4802 93.2914 21.4802C92.6981 21.4802 92.2614 21.7205 91.9823 22.2013C91.7906 22.5301 91.6944 22.994 91.6944 23.5928V26.2746H91.1709Z" fill="white"/>
<path d="M101.241 21.6573V22.3277C100.735 21.7627 100.12 21.4802 99.3959 21.4802C98.7499 21.4802 98.2181 21.6953 97.799 22.1254C97.3803 22.547 97.171 23.0783 97.171 23.7192C97.171 24.4108 97.3935 24.9548 97.8385 25.3511C98.2834 25.7391 98.7938 25.933 99.3696 25.933C100.077 25.933 100.722 25.6252 101.307 25.0096V25.6927C100.748 26.1734 100.098 26.4137 99.3564 26.4137C98.5538 26.4137 97.8951 26.1607 97.3803 25.6547C96.8743 25.1403 96.6211 24.4993 96.6211 23.7319C96.6211 22.9476 96.8743 22.2983 97.3803 21.7838C97.8863 21.2609 98.5582 20.9995 99.3959 20.9995C100.085 20.9995 100.7 21.2188 101.241 21.6573Z" fill="white"/>
<path d="M103.197 29.184L104.453 26.363L101.914 21.1133H102.516L104.754 25.7052L106.705 21.1133H107.307L103.799 29.184H103.197Z" fill="white"/>
<path d="M34.2302 16.5424C34.2302 7.40627 26.5675 0 17.1151 0C7.6627 0 0 7.40627 0 16.5424C0 25.6785 7.6627 33.0847 17.1151 33.0847C26.5675 33.0847 34.2302 25.6785 34.2302 16.5424Z" fill="black"/>
<path d="M33.0034 16.5428C33.0034 8.06121 25.8897 1.18555 17.1145 1.18555C8.3393 1.18555 1.22559 8.06121 1.22559 16.5428C1.22559 25.0243 8.3393 31.9 17.1145 31.9C25.8897 31.9 33.0034 25.0243 33.0034 16.5428Z" fill="black" stroke="#FFB800" stroke-width="0.516949"/>
<path d="M10.6407 13.7095H7.38477V12.2109H15.5738V13.7095H12.318V21.4065H10.6407V13.7095Z" fill="#FFB800"/>
<path d="M17.471 20.2217C16.5314 19.3135 16.0615 18.1782 16.0615 16.8159C16.0615 15.4536 16.5407 14.3138 17.4992 13.3965C18.4482 12.4883 19.6463 12.0342 21.0934 12.0342C22.08 12.0342 22.968 12.2612 23.7573 12.7153C24.556 13.1695 25.1574 13.787 25.5614 14.5681L23.9264 15.1539C23.6445 14.6634 23.2546 14.282 22.7566 14.0096C22.2586 13.7371 21.7042 13.6008 21.0934 13.6008C20.1725 13.6008 19.3926 13.9096 18.7536 14.5272C18.1241 15.1357 17.8093 15.8941 17.8093 16.8023C17.8093 17.7287 18.11 18.4961 18.7113 19.1046C19.3127 19.7131 20.0597 20.0173 20.9524 20.0173C21.6478 20.0173 22.282 19.8175 22.8552 19.4179C23.4096 19.0274 23.7808 18.5097 23.9687 17.8649H20.7833V16.3799H25.8715C25.8903 16.6161 25.8997 16.7659 25.8997 16.8295C25.8809 18.1918 25.4064 19.3225 24.4761 20.2217C23.5459 21.1299 22.3854 21.584 20.9947 21.584C19.5852 21.584 18.4107 21.1299 17.471 20.2217Z" fill="#FFB800"/>
</g>
<defs>
<clipPath id="clip0_18_188">
<rect width="122" height="33.0847" fill="white"/>
</clipPath>
</defs>
</svg>
