<svg width="22" height="24" viewBox="0 0 22 24" fill="none" xmlns="http://www.w3.org/2000/svg">
<path d="M21.0568 7.85817C19.8318 2.46817 15.1301 0.0415039 11.0001 0.0415039C11.0001 0.0415039 11.0001 0.0415039 10.9884 0.0415039C6.87011 0.0415039 2.15678 2.4565 0.931778 7.8465C-0.433222 13.8665 3.25344 18.9648 6.59011 22.1732C7.82678 23.3632 9.41344 23.9582 11.0001 23.9582C12.5868 23.9582 14.1734 23.3632 15.3984 22.1732C18.7351 18.9648 22.4218 13.8782 21.0568 7.85817ZM11.0001 13.7032C8.97011 13.7032 7.32511 12.0582 7.32511 10.0282C7.32511 7.99817 8.97011 6.35317 11.0001 6.35317C13.0301 6.35317 14.6751 7.99817 14.6751 10.0282C14.6751 12.0582 13.0301 13.7032 11.0001 13.7032Z" fill="white"/>
</svg>
