<svg width="36" height="36" viewBox="0 0 36 36" fill="none" xmlns="http://www.w3.org/2000/svg">
<rect width="36" height="36" rx="18" fill="#675DA9"/>
<path d="M26.815 9.13841C26.2196 8.59101 23.8091 6.83837 18.4359 6.81436C18.4359 6.81436 12.1024 6.43022 9.01489 9.26325C7.29587 10.9823 6.69084 13.4936 6.62842 16.6147C6.566 19.7311 6.48437 25.5748 12.1168 27.1594H12.1216L12.1168 29.5747C12.1168 29.5747 12.0832 30.5542 12.7267 30.7511C13.5045 30.9912 13.9655 30.2469 14.7098 29.445C15.1179 29.0033 15.6797 28.3598 16.1071 27.8653C19.9581 28.187 22.9208 27.4475 23.2569 27.3371C24.0348 27.0826 28.438 26.5208 29.1535 20.677C29.8929 14.6652 28.7933 10.8574 26.815 9.13841ZM27.468 20.2545C26.863 25.1331 23.2953 25.4404 22.6375 25.6516C22.359 25.7429 19.7564 26.3911 16.4816 26.175C16.4816 26.175 14.0423 29.1185 13.2837 29.882C13.1636 30.002 13.0244 30.0501 12.9331 30.026C12.8035 29.9924 12.7651 29.8388 12.7699 29.6131C12.7699 29.2866 12.7891 25.594 12.7891 25.594C12.7843 25.594 12.7843 25.594 12.7891 25.594C8.02093 24.2735 8.29943 19.2989 8.35225 16.6964C8.40507 14.0938 8.89485 11.957 10.3498 10.5213C12.9571 8.15885 18.3399 8.50938 18.3399 8.50938C22.8824 8.52858 25.0576 9.89708 25.5617 10.3533C27.2376 11.7938 28.0923 15.227 27.468 20.2545Z" fill="white"/>
<path d="M20.6493 16.7876C20.4909 16.7876 20.3564 16.6628 20.3468 16.4995C20.294 15.4671 19.809 14.9629 18.8199 14.9101C18.6518 14.9005 18.5221 14.7565 18.5318 14.5884C18.5414 14.4203 18.6854 14.2907 18.8535 14.3003C20.1595 14.3723 20.8894 15.1214 20.9566 16.4659C20.9662 16.634 20.8366 16.778 20.6685 16.7828C20.6589 16.7876 20.6541 16.7876 20.6493 16.7876Z" fill="white"/>
<path d="M22.2053 17.3062H22.2005C22.0324 17.3014 21.898 17.1622 21.9028 16.9941C21.9268 15.9569 21.6291 15.1166 20.9952 14.4252C20.3662 13.7337 19.4971 13.3592 18.3495 13.2775C18.1814 13.2631 18.0566 13.1191 18.071 12.951C18.0854 12.783 18.2294 12.6581 18.3975 12.6725C19.6939 12.7686 20.7167 13.2199 21.4466 14.017C22.1813 14.8189 22.5366 15.8225 22.5126 17.0085C22.5078 17.1766 22.3685 17.3062 22.2053 17.3062Z" fill="white"/>
<path d="M23.7995 17.9304C23.6314 17.9304 23.497 17.7959 23.497 17.6279C23.4826 15.7696 22.9496 14.3531 21.8644 13.2919C20.7936 12.2451 19.4347 11.7121 17.8357 11.6977C17.6677 11.6977 17.5332 11.5585 17.5332 11.3904C17.5332 11.2223 17.6725 11.0879 17.8357 11.0879C19.598 11.1023 21.0961 11.6929 22.2821 12.8549C23.473 14.017 24.0828 15.6207 24.102 17.6183C24.1068 17.7911 23.9724 17.9304 23.7995 17.9304C23.8043 17.9304 23.8043 17.9304 23.7995 17.9304Z" fill="white"/>
<path d="M18.892 20.5475C18.892 20.5475 19.3194 20.5859 19.5499 20.3026L19.9964 19.7408C20.2125 19.4623 20.7359 19.2847 21.2449 19.568C21.5282 19.7264 22.042 20.0433 22.3589 20.2786C22.6998 20.5283 23.3913 21.1045 23.3961 21.1093C23.7274 21.3878 23.8042 21.796 23.5785 22.2329C23.5785 22.2329 23.5785 22.2377 23.5785 22.2425C23.348 22.6507 23.0359 23.0348 22.647 23.3902C22.6422 23.3902 22.6422 23.395 22.6374 23.395C22.3157 23.6639 21.9987 23.8175 21.6914 23.8511C21.653 23.8607 21.6098 23.8607 21.5522 23.8607C21.4177 23.8607 21.2833 23.8415 21.1488 23.7983L21.1392 23.7839C20.6591 23.6495 19.862 23.3133 18.5367 22.5787C17.6724 22.1033 16.9569 21.6183 16.3471 21.1333C16.0254 20.8788 15.6988 20.5955 15.3627 20.2594C15.3531 20.2498 15.3387 20.2354 15.3291 20.2258C15.3195 20.2162 15.3051 20.2018 15.2955 20.1922C15.2859 20.1826 15.2715 20.1682 15.2619 20.1586C15.2523 20.149 15.2379 20.1346 15.2283 20.125C14.8969 19.7888 14.6088 19.4623 14.3544 19.1406C13.8694 18.5356 13.3844 17.8153 12.909 16.951C12.1744 15.6209 11.8382 14.8238 11.7038 14.3485L11.6894 14.3388C11.6462 14.2044 11.627 14.0699 11.627 13.9355C11.627 13.8779 11.627 13.8347 11.6366 13.7962C11.675 13.4841 11.8286 13.172 12.0927 12.8503C12.0927 12.8455 12.0975 12.8455 12.0975 12.8407C12.4529 12.447 12.837 12.1396 13.2451 11.9092C13.2451 11.9092 13.2499 11.9092 13.2547 11.9092C13.6869 11.6835 14.0951 11.7603 14.3784 12.0916C14.3784 12.0916 14.9594 12.7879 15.2091 13.1288C15.4444 13.4505 15.7613 13.9595 15.9197 14.2428C16.203 14.7518 16.0254 15.2752 15.7469 15.4913L15.1851 15.9378C14.9018 16.1683 14.9402 16.5957 14.9402 16.5957C14.9402 16.5957 15.7709 19.7552 18.892 20.5475Z" fill="white"/>
</svg>
